# xmcd CD database file
#
# Track frame offsets:
#	150
#	23401
#	32892
#	53146
#	86249
#	111292
#	136801
#	149417
#	166727
#	236651
#	267554
#	285354
#	300663
#	328281
#
# Disc length: 4787 seconds
#
# Revision: 1
# Processed by: cddbd v1.5PL3 Copyright (c) Steve Scherf et al.
# Submitted via: CDex 1.51
#
DISCID=c512b10e
DTITLE=E.T.KING and the Determination - LIVE
DYEAR=2003
DGENRE=Blues
TTITLE0=YOU SEND ME
TTITLE1=KANSAS CITY
TTITLE2=STAND BY ME
TTITLE3=DISTANT LOVER 
TTITLE4=UNCHAINED MELODY
TTITLE5=MUSTANG SALLY
TTITLE6=WHY I SING THE BLUES
TTITLE7=DOCK OF THE BAY
TTITLE8=BEEN DOWN HEARTED/STROMY MONDAY
TTITLE9=CAN I GET A WITTNESS/BIG BOSS MAN
TTITLE10=MY GIRL
TTITLE11=CHILI con CARNE
TTITLE12=YOU GOT ME DO'IN WHAT YOU WANT
TTITLE13=LETS GET IT ON
EXTD=YEAR: 2003
EXTT0=
EXTT1=
EXTT2=
EXTT3=
EXTT4=
EXTT5=
EXTT6=
EXTT7=
EXTT8=
EXTT9=
EXTT10=
EXTT11=
EXTT12=
EXTT13=
PLAYORDER=
